<?xml version="1.0" standalone="no"?><!DOCTYPE svg PUBLIC "-//W3C//DTD SVG 1.1//EN" "http://www.w3.org/Graphics/SVG/1.1/DTD/svg11.dtd"><svg t="1769156459354" class="icon" viewBox="0 0 1024 1024" version="1.1" xmlns="http://www.w3.org/2000/svg" p-id="3811" xmlns:xlink="http://www.w3.org/1999/xlink" width="200" height="200"><path d="M972.8 512c0 254.464-206.336 460.8-460.8 460.8s-460.8-206.336-460.8-460.8 206.336-460.8 460.8-460.8 460.8 206.336 460.8 460.8" fill="#D6EDE4" p-id="3812"></path><path d="M364.3136 173.63968c-13.7984-9.72288-22.64064-16.768-26.53696-21.1456-14.67392-16.4864-14.40256-28.78976-6.52288-34.85184 11.02336-8.47872 26.73664 5.79584 47.15008 42.81856-8.7552-49.34656-2.56-74.01984 18.57024-74.01984s21.13024 24.67328 0 74.01984l-32.66048 13.17888z" fill="#9B5419" p-id="3813"></path><path d="M587.776 810.496c-20.48 0-34.816-14.848-34.816-33.28v-32.768c-2.048-22.016-20.48-40.448-42.496-38.912-22.016 2.048-40.448 20.48-38.912 42.496v29.696c0 18.432-14.848 33.28-33.28 33.28h-2.048c-34.816 0-62.464 27.648-62.464 62.464v77.312c44.032 12.8 90.112 20.48 138.24 20.48 48.128 0 94.208-7.168 138.24-20.48v-77.312c0-35.328-27.648-62.976-62.464-62.976z" fill="#FFD9B8" p-id="3814"></path><path d="M572.43136 800.84992l26.60864 4.52608c29.184 5.12 53.248 31.232 53.248 62.976v80.896c-44.544 14.848-92.672 22.016-140.288 22.016-47.616 0-95.744-7.68-138.24-20.48v-82.944c0-31.232 25.6-56.832 55.296-62.464 0.01024 0.01536 0.00512 0.00512 0 0l23.95648-4.52608c19.06688 15.29856 39.07072 22.94784 60.01152 22.94784s40.73984-7.64928 59.40736-22.94784z" fill="#17D6E0" p-id="3815"></path><path d="M583.67488 803.24608c5.95456 0.22016 12.01664 0.93184 18.19136 2.12992 6.1696 1.19808 12.3392 3.96288 18.51392 8.2944l0.01024 146.304A461.87008 461.87008 0 0 1 512 972.8a462.40256 462.40256 0 0 1-98.70336-10.5984l0.00512-152.13568a160.75776 160.75776 0 0 1 15.75424-4.68992c4.54656-1.06496 9.0624-1.77152 13.54752-2.12992 11.44832 44.4416 36.1984 66.6624 74.26048 66.6624 38.05696 0 60.32896-22.2208 66.81088-66.6624z" fill="#15B5B1" p-id="3816"></path><path d="M209.92 563.712c-33.28 0-58.88-25.6-58.88-58.88s25.6-58.88 58.88-58.88 58.88 25.6 58.88 58.88-27.648 58.88-58.88 58.88z m613.888 0c-33.28 0-58.88-25.6-58.88-58.88s25.6-58.88 58.88-58.88 58.88 25.6 58.88 58.88-27.648 58.88-58.88 58.88z" fill="#FFD9B8" p-id="3817"></path><path d="M471.552 740.864h82.944v38.912H471.552z" fill="#E5BFA3" p-id="3818"></path><path d="M512 748.032c-169.472 0-307.712-138.24-307.712-307.712s138.24-307.712 307.712-307.712c25.6 0 53.248 3.584 79.36 11.264 134.656 34.816 228.352 158.72 228.352 296.96 0.512 168.96-137.728 307.2-307.712 307.2z" fill="#FFD9B8" p-id="3819"></path><path d="M716.8 219.136c101.376 132.608 75.776 322.56-57.344 423.936-116.224 88.576-280.064 80.896-387.072-18.432 101.376 132.608 291.328 160.256 423.936 58.88s160.256-291.328 58.88-423.936c-12.8-14.848-25.6-29.696-38.4-40.448z" fill="#FFCFA6" p-id="3820"></path><path d="M456.704 478.208c-5.632 0-9.216-3.584-9.216-9.216 0-12.8-14.848-22.016-31.232-22.016-16.384 0-31.232 11.264-31.232 22.016 0 5.632-5.632 9.216-11.264 9.216s-9.216-3.584-9.216-9.216c0-24.064 24.064-42.496 51.712-42.496 27.648 0 51.712 20.48 51.712 42.496 0 3.584-5.632 9.216-11.264 9.216z m216.064 0c-5.632 0-9.216-3.584-9.216-9.216 0-12.8-14.848-22.016-31.232-22.016-16.384 0-31.232 11.264-31.232 22.016 0 5.632-3.584 9.216-9.216 9.216s-9.216-3.584-9.216-9.216c0-24.064 24.064-42.496 51.712-42.496 27.648 0 51.712 20.48 51.712 42.496-2.56 3.584-8.192 9.216-13.312 9.216z" fill="#333330" p-id="3821"></path><path d="M313.344 518.656c0 9.216 18.432 18.432 40.448 18.432 22.016 0 40.448-7.168 40.448-18.432 0-9.216-18.432-18.432-40.448-18.432-22.016 2.048-40.448 9.216-40.448 18.432z m340.992 0c0 9.216 18.432 18.432 40.448 18.432 22.016 0 40.448-7.168 40.448-18.432 0-9.216-18.432-18.432-40.448-18.432-22.016 0-40.448 9.216-40.448 18.432z" fill="#FFEDE3" p-id="3822"></path><path d="M812.544 504.832c0 11.264 7.168 22.016 14.848 22.016 7.168 0 14.848-9.216 14.848-20.48s-7.168-22.016-14.848-22.016c-7.168 0-14.848 9.216-14.848 20.48z" fill="#E5BFA3" p-id="3823"></path><path d="M565.76 266.752l-18.432 36.864H484.352s40.96-36.864 81.408-36.864z" fill="#9B5419" p-id="3824"></path><path d="M204.288 455.87968c25.68704-11.0592 44.12928-27.93472 55.32672-50.61632 11.19744-22.6816 20.12672-44.96896 26.79808-66.85696h46.1312l15.4112-48.40448 17.408 48.40448H425.984l19.28704-48.40448 17.55136 48.40448h117.95968l17.24416-44.73344 20.8128 44.73344h34.97984l20.8384-73.04192 27.904 73.04192h34.048c10.16832 35.84 21.4272 62.208 33.7664 79.11424 12.3392 16.91136 28.78976 28.5184 49.33632 34.83136 19.84512-98.98496-7.8592-183.51616-83.10272-253.58336-102.24128-82.1248-171.42784-86.83008-260.00384-79.13984-34.68288 3.00544-67.41504 16.61952-98.2016 40.832-38.70208 0-78.30016 19.5584-118.78912 58.6752C204.01152 275.62496 185.56928 354.53952 204.288 455.87968z" fill="#9B5419" p-id="3825"></path><path d="M674.6624 265.36448l-20.3264 74.12736h-33.95584zM448.76288 285.184L429.056 339.49184l-34.816-1.08544zM598.02624 293.67296l-15.37024 44.73344H547.84zM347.9552 290.00192l-15.4112 48.40448h-27.3664zM655.62112 145.7152c25.10336 12.34432 51.69152 29.52192 80.98816 53.05344 75.24352 70.0672 102.94784 154.5984 83.10272 253.58336-15.82592-4.864-29.21984-12.86656-40.18176-24.0128l-0.47616-1.8432c7.35232-58.7264-4.03456-115.65056-34.17088-170.76736-27.62752-50.52928-57.20064-87.07072-88.71936-109.62944z" fill="#6D3C0F" p-id="3826"></path></svg>