<?xml version="1.0" standalone="no"?><!DOCTYPE svg PUBLIC "-//W3C//DTD SVG 1.1//EN" "http://www.w3.org/Graphics/SVG/1.1/DTD/svg11.dtd"><svg t="1769156474605" class="icon" viewBox="0 0 1024 1024" version="1.1" xmlns="http://www.w3.org/2000/svg" p-id="5419" xmlns:xlink="http://www.w3.org/1999/xlink" width="200" height="200"><path d="M1022.468601 512.76685c0 282.200699-229.032451 510.721917-511.23315 510.721917s-511.23315-229.032451-511.23315-510.721917S229.034752 2.044933 511.235451 2.044933s511.23315 229.032451 511.23315 510.721917" fill="#FFF8CE" p-id="5420"></path><path d="M591.499055 850.691962c-24.539191 0-44.988517-20.449326-44.988517-44.988517v-32.718922c0-22.494259-16.359461-40.898652-38.853719-40.898652s-38.853719 18.404393-38.85372 40.898652v32.718922c0 22.494259-20.449326 44.988517-42.943584 44.988517h-2.044933c-34.763854 0-67.482776 26.584124-67.482776 61.347978v87.420869c51.123315 14.314528 102.24663 22.494259 155.414878 22.494258 49.078382 0 96.111832-8.17973 147.235147-20.449326v-92.021967c-0.511233-32.718922-33.230155-58.791812-67.482776-58.791812" fill="#FFD9B8" p-id="5421"></path><path d="M511.235451 1024c34.763854 0 71.572641-4.089865 104.291562-10.224663l-38.853719-147.235147c-4.089865-18.404393-22.494259-32.718922-40.898652-32.718922h-61.347978c-18.404393 0-36.808787 14.314528-40.898652 32.718922l-36.808787 144.678981c36.808787 7.157264 75.662506 12.780829 114.516226 12.780829" fill="#E0328D" p-id="5422"></path><path d="M961.120623 445.795307c0 42.943585-34.763854 77.707439-77.707439 77.707439s-77.707439-34.763854-77.707439-77.707439S839.958366 368.087868 883.413184 368.087868s77.707439 35.275087 77.707439 77.707439m-747.934099 0c0 42.943585-34.763854 77.707439-77.707439 77.707439S57.771647 488.738892 57.771647 445.795307 92.024268 368.087868 134.967852 368.087868s78.218672 35.275087 78.218672 77.707439" fill="#FF9B4F" p-id="5423"></path><path d="M162.063209 496.918622c-42.943585 0-77.707439-34.763854-77.707439-77.707439 0-16.359461 4.089865-30.673989 12.269596-42.943584-24.539191 14.314528-38.853719 38.853719-38.853719 67.482775 0 42.943585 34.763854 77.707439 77.707438 77.707439 26.584124 0 51.123315-14.314528 65.437844-36.808787-10.735896 8.17973-25.050424 12.269596-38.85372 12.269596m777.074389-75.662506c0 42.943585-34.763854 77.707439-77.707439 77.707439-16.359461 0-30.673989-4.089865-42.943585-12.269596 14.314528 24.539191 38.853719 38.853719 67.482776 38.853719 42.943585 0 77.707439-34.763854 77.707439-77.707438 0-26.584124-14.314528-51.123315-36.808787-65.437844 9.71343 12.269596 12.269596 24.539191 12.269596 38.85372" fill="#E78745" p-id="5424"></path><path d="M530.151077 807.748377h-45.49975c-10.224663 0-18.404393-8.17973-18.404393-18.404393v-8.17973c0-10.224663 8.17973-18.404393 18.404393-18.404394h44.988517c10.224663 0 18.404393 8.17973 18.404394 18.404394v8.17973c-2.044933 10.224663-7.668497 18.404393-17.893161 18.404393" fill="#E5BFA3" p-id="5425"></path><path d="M842.514532 431.480779c0 185.577634-151.325012 337.413879-337.413879 337.413879s-337.413879-151.836246-337.413879-337.413879 151.325012-337.413879 337.413879-337.413879c188.645032 0 337.413879 151.836246 337.413879 337.413879" fill="#FFD9B8" p-id="5426"></path><path d="M169.731706 398.761857c0 8.17973 4.089865 14.314528 12.269596 14.314528h4.089865c175.864204 0 321.054418-132.920619 337.413879-304.694957 0-8.17973-4.089865-14.314528-12.269595-14.314528h-4.089865c-175.864204 0-319.009486 135.476785-337.41388 304.694957" fill="#FF9B4F" p-id="5427"></path><path d="M844.559465 388.537194c-22.494259-161.549675-157.45981-287.824264-323.099351-294.470294 22.494259 162.060909 157.45981 288.84673 323.099351 294.470294" fill="#FF9B4F" p-id="5428"></path><path d="M648.245935 210.628058c-12.269596 12.269596-32.718922 8.17973-49.078382-8.17973-16.359461-16.359461-18.404393-36.808787-8.179731-49.078383 12.269596-12.269596 32.718922-8.17973 49.078383 8.17973 16.359461 16.870694 20.449326 38.853719 8.17973 49.078383m110.426361 104.291563c-16.359461 16.359461-51.123315 8.17973-77.707439-18.404394s-34.763854-61.347978-18.404394-77.707439c16.359461-16.359461 51.123315-8.17973 77.707439 18.404394 26.584124 26.584124 35.275087 61.347978 18.404394 77.707439" fill="#FEAE64" p-id="5429"></path><path d="M445.797608 460.109835c-6.134798 0-10.224663-4.089865-10.224663-10.224663 0-14.314528-16.359461-26.584124-34.763855-26.584124s-34.763854 12.269596-34.763854 26.584124c0 6.134798-4.089865 10.224663-10.224663 10.224663s-10.224663-4.089865-10.224663-10.224663c0-26.584124 26.584124-47.03345 57.258113-47.03345 32.718922 0 57.258113 22.494259 57.258113 47.03345-1.533699 6.134798-8.17973 10.224663-14.314528 10.224663m239.257114 0c-6.134798 0-10.224663-4.089865-10.224663-10.224663 0-14.314528-16.359461-26.584124-34.763854-26.584124s-34.763854 12.269596-34.763855 26.584124c0 6.134798-4.089865 10.224663-10.224663 10.224663s-10.224663-4.089865-10.224663-10.224663c0-26.584124 26.584124-47.03345 57.258113-47.03345s57.258113 22.494259 57.258113 47.03345c-2.044933 6.134798-8.17973 10.224663-14.314528 10.224663" fill="#333330" p-id="5430"></path><path d="M376.781132 507.143285c0 10.224663-20.449326 20.449326-44.988517 20.449326-24.539191 0-44.988517-8.17973-44.988517-20.449326s20.449326-20.449326 44.988517-20.449326c24.539191 0 44.988517 10.224663 44.988517 20.449326m378.312532 0c0 10.224663-20.449326 20.449326-44.988518 20.449326-24.539191 0-44.988517-8.17973-44.988517-20.449326s20.449326-20.449326 44.988517-20.449326c24.539191 0 44.988517 10.224663 44.988518 20.449326" fill="#FFEDE3" p-id="5431"></path></svg>